<svg width="55" height="55" viewBox="0 0 55 55" fill="none" xmlns="http://www.w3.org/2000/svg">
<path d="M35.481 25.0156H37.5465V22.9501H39.6579V20.8846H41.7693V18.7732H43.8348V16.6618H45.9462V14.5963H48.0117V12.5308H50.1231V10.4194H52.1886V8.30795H54.2542V6.24244H52.1886V4.13102H50.1231V2.06551H48.0576V0H43.8807V2.01961H41.7693V4.13102H39.7038V6.19653H37.6383V8.30795H35.5269V10.3735H33.4154V12.4849H31.3499V14.5963H29.2385V16.6618H27.173V18.7273H25.0616V20.8387H22.9961V22.9501H20.8847V25.0156H18.7733V27.1271H16.7077V29.1926H14.6422V31.2581H12.5308V0H6.48499e-05V54.3H54.2542V41.8151H22.9502V37.6382H25.0157V35.5727H27.1271V33.4613H29.1926V31.3499H31.304V29.2844H33.4154V27.173H35.481V25.0615V25.0156Z" fill="white"/>
</svg>
