<svg width="53" height="60" viewBox="0 0 53 60" fill="none" xmlns="http://www.w3.org/2000/svg">
<path d="M52.557 29.9768H50.9354V31.6448H49.2674V33.3127H45.9315V34.9807H42.5956V36.6486H39.2597V38.3166H37.5918V39.9846H34.2559V41.6525H30.9199V43.3205H27.584V44.9884H25.9161V46.6564H22.5802V48.3243H19.2443V49.9923H15.9084V51.6602H14.2404V53.3282H10.9045V54.9961H7.5686V56.6641H5.90064V58.332H2.56474V60H0.943115V0H4.23269V1.62162H7.5686V3.28957H10.9045V4.95753H12.5725V6.62548H15.9084V8.29344H19.2443V9.96139H20.9122V11.6293H24.2481V13.2973H27.584V14.9652H30.9199V16.6332H32.5879V18.3012H35.9238V19.9691H39.2597V21.6371H42.5956V23.305H44.2636V24.973H47.5995V26.6409H50.9354V28.3089H52.6033V29.9768H52.557Z" fill="black"/>
</svg>
