<svg width="365" height="87" viewBox="0 0 365 87" fill="none" xmlns="http://www.w3.org/2000/svg">
<path d="M21.4381 21.4381H26.7692V16.2203C28.6975 16.1069 30.3989 15.9935 32.2138 15.88V10.7757H37.545C37.6584 8.84746 37.7718 7.14602 37.8852 5.33116H59.2099V26.7692C57.6219 26.7692 56.0339 26.9961 54.219 27.1095V53.9921H59.3233C59.3233 52.2907 59.5502 50.7027 59.6636 48.8878C61.365 48.8878 62.8396 48.661 64.7679 48.661C64.7679 47.073 64.9947 45.485 65.1082 43.5567C66.6962 43.5567 68.3976 43.3298 70.2125 43.2164C70.2125 41.515 70.4393 39.8135 70.5528 37.9987H75.7705V27.2229C77.6988 27.2229 79.4002 26.9961 81.2151 26.9961V21.7783H86.5462C86.6596 19.8501 86.7731 18.1486 86.8865 16.3338H91.9908V11.0026C93.9191 10.8892 95.6205 10.7757 97.4354 10.6623V5.67145H119.1V21.6649H114.109V54.219H119.214C119.214 52.631 119.327 51.043 119.441 49.1147H124.545C124.658 47.1864 124.772 45.485 124.885 43.6701C126.587 43.6701 128.061 43.5567 129.989 43.4433V32.8944C131.918 32.7809 133.619 32.6675 135.434 32.5541C135.434 30.8527 135.661 29.3781 135.661 27.4498C137.249 27.4498 138.837 27.2229 140.879 27.1095C140.879 25.5215 141.106 23.8201 141.219 22.0052C142.92 22.0052 144.622 21.7783 146.437 21.6649V16.5606C148.252 16.5606 149.953 16.4472 151.881 16.3338V5.78488H173.546C173.546 7.37288 173.773 9.07431 173.886 10.8892C175.588 11.0026 177.289 11.116 178.991 11.2295V16.3338C177.403 16.3338 175.701 16.4472 173.773 16.5606V38.1121H168.555V54.3324C170.143 54.4459 171.731 54.5593 173.546 54.6727V65.2216C171.958 65.2216 170.37 65.4485 168.442 65.5619C168.328 67.2633 168.215 68.8513 168.102 70.7796H162.997V81.5553C161.069 81.6688 159.368 81.7822 157.553 81.8956C157.553 83.5971 157.439 85.0716 157.326 86.8865H146.664V71.0065H108.551V76.1108C106.737 76.2242 105.035 76.3376 103.22 76.4511C103.22 78.1525 103.107 79.6271 102.993 81.5553C101.405 81.5553 99.704 81.7822 97.7757 81.8956C97.7757 83.5971 97.5488 85.1851 97.4354 86.9999H86.8865V71.1199H48.7744C48.7744 72.7079 48.661 74.1825 48.5476 76.1108C46.9596 76.1108 45.3715 76.3376 43.3298 76.4511V86.9999H32.4407V81.8956C30.6258 81.8956 28.9244 81.6688 27.1095 81.5553V71.0065H5.44459C5.33116 69.0782 5.21773 67.3767 5.1043 65.5619C3.40287 65.5619 1.70143 65.335 0 65.2216V54.6727C1.588 54.6727 3.28944 54.4459 5.21773 54.3324V43.6701H10.5489V38.339C12.4772 38.2255 14.1786 38.1121 15.9935 37.9987V32.8944C17.8083 32.8944 19.5098 32.7809 21.4381 32.6675V21.8918V21.4381ZM27.1095 37.8852C26.9961 39.8135 26.8826 41.515 26.7692 43.103C24.8409 43.103 23.2529 43.2164 21.7783 43.3298V53.7653H32.2138V37.8852H27.1095ZM86.7731 43.103C84.7314 43.103 83.2568 43.2164 81.5554 43.3298V53.8787H86.6597C86.7731 52.0638 86.8865 50.3624 86.9999 48.7744C88.9282 48.7744 90.4028 48.661 91.9908 48.5476V37.9987H86.6597V43.103H86.7731ZM146.777 43.2164H141.559V53.8787H146.664C146.664 52.0638 146.89 50.4758 147.004 48.5476H152.108V37.8852H146.89V43.2164H146.777Z" fill="black"/>
<path d="M244.779 0V37.6584H249.997C249.997 36.1838 250.224 34.4824 250.337 32.5541C251.925 32.5541 253.627 32.3272 255.442 32.2138C255.442 30.5124 255.669 28.8109 255.782 26.9961H260.886C260.886 25.1812 261.113 23.4798 261.227 21.6649H293.667V26.7692H304.443V64.8813H299.339V75.657C297.41 75.7705 295.709 75.8839 293.894 75.9973V81.1016H283.118C283.005 83.0299 282.892 84.7313 282.778 86.5462H250.451C250.451 84.9582 250.224 83.3702 250.111 81.4419C248.409 81.3285 246.821 81.2151 244.893 81.1016V70.5527C243.078 70.5527 241.377 70.3259 239.562 70.2125C239.448 68.511 239.335 66.923 239.221 65.1082H234.117V80.9882C232.189 81.1016 230.487 81.215 228.673 81.3285C228.673 83.0299 228.559 84.5045 228.446 86.3193H217.897C217.897 84.7313 217.67 83.1433 217.557 81.3285C215.855 81.3285 214.381 81.2151 212.566 81.1016V70.5527C214.154 70.5527 215.742 70.3259 217.783 70.2125V48.661H223.115V21.5515C225.043 21.5515 226.517 21.4381 228.446 21.3246V5.33116C230.374 5.21773 232.075 5.1043 233.89 4.99087C233.89 3.28944 234.117 1.81486 234.117 0H244.893H244.779ZM288.109 54.1056V43.3298C286.294 43.3298 284.593 43.103 282.778 42.9895V37.8852H272.116C272.116 39.7001 271.889 41.2881 271.776 43.3298H266.444V48.4341C264.63 48.5475 262.928 48.661 261.34 48.7744V70.099H277.334C277.334 68.2842 277.447 66.6962 277.56 65.1082C279.375 64.9947 281.077 64.8813 283.005 64.7679V54.1056H288.109Z" fill="black"/>
<path d="M320.776 37.6584H315.786V21.665H331.779C331.779 23.253 331.892 24.9544 332.006 26.7693H337.224V32.1004H342.668V26.9961H353.444C353.557 25.0678 353.671 23.3664 353.784 21.5515H364.22V37.545C362.632 37.545 360.93 37.7719 359.115 37.8853V42.9896H353.784C353.671 44.9179 353.557 46.6193 353.444 48.4342H348.453V64.6545C350.041 64.6545 351.629 64.8814 353.557 64.9948V75.5437C355.372 75.5437 357.074 75.7705 358.888 75.884V81.1017C357.3 81.1017 355.712 81.2151 353.784 81.3285C353.784 82.9165 353.557 84.618 353.444 86.4328H342.782C342.782 84.8448 342.668 83.2568 342.555 81.442C340.967 81.442 339.265 81.2151 337.337 81.1017C337.337 79.4002 337.11 77.8122 336.997 75.9974H326.334V81.1017C324.52 81.1017 322.818 81.3285 321.003 81.442C321.003 83.1434 320.776 84.8448 320.776 86.5463H304.783V70.5528C306.371 70.5528 307.846 70.4394 309.774 70.3259C309.774 68.7379 310.001 67.1499 310.114 65.2216C311.702 65.2216 313.404 64.9948 315.218 64.8813C315.218 63.1799 315.445 61.4785 315.559 59.6636H320.663V37.7719L320.776 37.6584Z" fill="black"/>
<path d="M222.888 5.21773V10.322C221.3 10.322 219.598 10.5489 217.783 10.6623C217.783 12.3637 217.556 14.0652 217.443 15.88H212.339V21.2112C213.927 21.2112 215.628 21.4381 217.33 21.5515V32.1004C215.742 32.1004 214.04 32.3272 212.225 32.4406C212.112 34.1421 211.998 35.8435 211.885 37.6584H206.781V48.4341C204.852 48.5475 203.151 48.661 201.336 48.7744V75.657C199.521 75.657 197.82 75.8839 196.005 75.9973C195.891 77.6988 195.778 79.2868 195.665 81.215H190.56V86.5462H179.671V59.777C181.259 59.777 182.847 59.5501 184.775 59.4367V37.8852H179.785V27.1095C181.373 27.1095 182.961 26.8826 184.889 26.7692V21.6649C186.704 21.6649 188.405 21.4381 190.333 21.3246V10.6623H195.665V5.33116C197.593 5.21773 199.294 5.1043 201.109 4.99087C201.109 3.28944 201.223 1.81486 201.336 0H217.33C217.33 1.588 217.556 3.17601 217.67 4.99087C219.371 4.99087 220.846 5.1043 222.774 5.21773H222.888Z" fill="black"/>
</svg>
